<?xml version="1.0" encoding="utf-8"?>
<!-- Generator: Adobe Illustrator 19.2.1, SVG Export Plug-In . SVG Version: 6.00 Build 0)  -->
<svg version="1.1" id="layer" xmlns="http://www.w3.org/2000/svg" xmlns:xlink="http://www.w3.org/1999/xlink" x="0px" y="0px"
	 viewBox="0 0 652 652" style="enable-background:new 0 0 652 652;" xml:space="preserve">
<style type="text/css">
	.st0{opacity:0.4;}
	.st1{fill:#405A63;}
	.st2{opacity:0.6;}
</style>
<g>
	<g class="st0">
		<g>
			<rect x="-119.4" y="372.3" class="st1" width="100" height="200"/>
		</g>
	</g>
	<g class="st2">
		<g>
			<rect x="-119.4" y="72.3" class="st1" width="100" height="200"/>
		</g>
	</g>
</g>
<polygon class="st1" points="-119.4,272.3 -119.4,372.3 80.6,372.3 80.6,572.3 180.6,572.3 180.6,372.3 180.6,272.3 "/>
<g>
	<path class="st1" d="M282.3,272.4h16.5v52.9h0.4c5.4-12,19.6-17.1,31.6-17.1c26.3,0,34.5,15.1,34.5,36.6v65.9h-16.5v-67.8
		c0-12.2-7.8-20.2-20.3-20.2c-20,0-29.6,13.4-29.6,31.4v56.6h-16.5V272.4z"/>
	<path class="st1" d="M449.9,359c-6.4,4.7-18.8,4.8-29.8,6.8c-10.8,1.9-20.1,5.8-20.1,18c0,10.8,9.3,14.7,19.4,14.7
		c21.7,0,30.6-13.6,30.6-22.7V359z M476.6,410.3c-2.9,1.7-6.6,2.7-11.8,2.7c-8.5,0-13.9-4.7-13.9-15.5
		c-9.1,10.7-21.3,15.5-35.3,15.5c-18.2,0-33.1-8.1-33.1-28.1c0-22.7,16.9-27.5,33.9-30.8c18.2-3.5,33.7-2.3,33.7-14.7
		c0-14.3-11.8-16.7-22.3-16.7c-14,0-24.2,4.3-25,19h-16.5c1-24.8,20.1-33.5,42.4-33.5c18,0,37.6,4.1,37.6,27.5v51.5
		c0,7.7,0,11.2,5.2,11.2c1.4,0,2.9-0.2,5-1V410.3z"/>
</g>
<polygon class="st1" points="532,410.7 514.4,410.7 477.2,310.6 495.6,310.6 523.7,394.1 524.1,394.1 551.4,310.6 568.6,310.6 "/>
<g>
	<path class="st1" d="M640.7,359c-6.4,4.7-18.8,4.8-29.8,6.8c-10.8,1.9-20.1,5.8-20.1,18c0,10.8,9.3,14.7,19.4,14.7
		c21.7,0,30.6-13.6,30.6-22.7V359z M667.5,410.3c-2.9,1.7-6.6,2.7-11.8,2.7c-8.5,0-13.9-4.7-13.9-15.5
		c-9.1,10.7-21.3,15.5-35.3,15.5c-18.2,0-33.1-8.1-33.1-28.1c0-22.7,16.9-27.5,33.9-30.8c18.2-3.5,33.7-2.3,33.7-14.7
		c0-14.3-11.8-16.7-22.3-16.7c-14,0-24.2,4.3-25,19h-16.5c1-24.8,20.1-33.5,42.4-33.5c18,0,37.6,4.1,37.6,27.5v51.5
		c0,7.7,0,11.2,5.2,11.2c1.4,0,2.9-0.2,5-1V410.3z"/>
	<path class="st1" d="M691.7,379.1c0.6,14.7,13.4,19.4,26.9,19.4c10.3,0,24.2-2.3,24.2-14.9c0-12.8-16.3-14.9-32.7-18.6
		c-16.3-3.7-32.7-9.1-32.7-28.3c0-20.1,19.9-28.5,37.4-28.5c22.1,0,39.7,7,41.1,31.4h-16.5c-1.2-12.8-12.4-16.9-23.3-16.9
		c-9.9,0-21.3,2.7-21.3,12.8c0,11.8,17.4,13.8,32.7,17.4c16.5,3.7,32.7,9.1,32.7,28.5c0,23.8-22.3,31.6-42.6,31.6
		c-22.5,0-41.5-9.1-42.4-33.9H691.7z"/>
</g>
</svg>
