<svg version="1.1" id="Layer_1" xmlns="http://www.w3.org/2000/svg" x="0" y="0" viewBox="0 0 275.1 41.3" xml:space="preserve"><style type="text/css">.st0{fill:#a5a29f}.st1{fill:none}.st5{fill:#005e99}.st6{fill:#0065a6}</style><path class="st0" d="M20 39.3c-10.3 0-18.7-8.4-18.7-18.7C1.3 10.3 9.7 1.9 20 1.9s18.7 8.4 18.7 18.7c0 10.3-8.4 18.7-18.7 18.7zm0-36.6c-9.9 0-17.9 8-17.9 17.9 0 9.9 8 17.9 17.9 17.9 9.9 0 17.9-8 17.9-17.9 0-9.9-8-17.9-17.9-17.9z"/><path class="st1" d="M20.4 21c.2 3.3 3 5.9 6.3 5.9 3.5 0 6.3-2.8 6.3-6.3 0-3.3-2.6-6-5.9-6.3-.2 3.6-3.1 6.5-6.7 6.7z"/><path class="st1" d="M26.3 14.3c-3.2.2-5.7 2.7-5.9 5.9 3.2-.2 5.7-2.7 5.9-5.9z"/><path class="st1" d="M26.3 13.5c-.2-3.3-3-5.9-6.3-5.9-3.5 0-6.3 2.8-6.3 6.3 0 3.3 2.6 6.1 5.9 6.3.2-3.6 3.1-6.5 6.7-6.7zm-5.9 7.6c.2 3.1 2.7 5.6 5.9 5.8-.3-3.1-2.8-5.6-5.9-5.8z"/><path class="st1" d="M27.1 26.9c3.3-.2 5.9-3 5.9-6.3s-2.6-6-5.9-6.3h-.8c-3.2.2-5.7 2.7-5.9 5.9 3.6.2 6.5 3.1 6.7 6.7zm-7.5-5.8c-3.3.2-5.9 2.9-5.9 6.3 0 3.5 2.8 6.3 6.3 6.3 3.3 0 6.1-2.6 6.3-5.9-3.6-.3-6.5-3.1-6.7-6.7z"/><path class="st0" d="M27.1 13.5h-.8c-3.6.2-6.5 3.1-6.7 6.7h.8c.2-3.2 2.7-5.7 5.9-5.9h.8c3.3.2 5.9 3 5.9 6.3s-2.6 6.1-5.9 6.3v.9c3.7-.2 6.7-3.3 6.7-7.1 0-3.9-2.9-7-6.7-7.2z"/><path class="st0" d="M20.4 21.1h-.8c.2 3.6 3.1 6.4 6.7 6.6v-.9c-3.1-.1-5.7-2.6-5.9-5.7z"/><path d="M19.6 21c0 .1 0 .1 0 0h.8v-.8h-.8v.4c-.1.1 0 .3 0 .4z" fill="#7fbcc7"/><path d="M27.1 26.9c-.2-3.6-3.1-6.4-6.7-6.6v.8c3.1.2 5.6 2.7 5.9 5.8v.9c-.2 3.3-2.9 5.9-6.3 5.9-3.5 0-6.3-2.8-6.3-6.3 0-3.3 2.6-6.1 5.9-6.3v-.8c-3.7.2-6.7 3.3-6.7 7.1 0 3.9 3.2 7.1 7.1 7.1 3.8 0 6.9-3 7.1-6.8v-.8z" fill="#f8b334"/><path class="st1" d="M12.9 14.3c-3.3.2-5.9 2.9-5.9 6.3 0 3.5 2.8 6.3 6.3 6.3 3.3 0 6.1-2.6 6.3-5.9-3.7-.2-6.5-3.1-6.7-6.7z"/><path class="st1" d="M19.5 20.2c-.2-3.1-2.7-5.6-5.8-5.9.2 3.1 2.7 5.7 5.8 5.9z"/><path d="M13.7 13.5v.8c3.1.2 5.6 2.7 5.8 5.9v.8c-.2 3.3-2.9 5.9-6.3 5.9-3.5 0-6.3-2.8-6.3-6.3 0-3.3 2.6-6.1 5.9-6.3v-.8C9 13.7 6 16.8 6 20.6c0 3.9 3.2 7.1 7.1 7.1 3.9 0 7.1-3.2 7.1-7.1.2-3.8-2.8-6.9-6.5-7.1z" fill="#20b0ab"/><path class="st5" d="M19.6 20.2s-.1 0 0 0v.4c-.1-.1 0-.3 0-.4z"/><path class="st6" d="M20 7.6c3.3 0 6.1 2.6 6.3 5.9h.8c-.2-3.7-3.3-6.7-7.1-6.7s-6.9 3-7.1 6.7v.8c.2 3.6 3.1 6.5 6.6 6.7v-.8c-3.1-.2-5.6-2.7-5.8-5.9v-.8c.3-3.3 3-5.9 6.3-5.9zm6.7 6.7h-.4c-.2 3.2-2.7 5.7-5.9 5.9v.8c3.6-.2 6.5-3.1 6.7-6.7h-.4z"/><path class="st5" d="M19.6 21v-.4c-.1.1-.1.3 0 .4-.1 0 0 0 0 0z"/><path class="st6" d="M48.4 19.1c1.3 0 1.6-.7 1.6-1.8V7.6c0-1.1-.3-1.4-1.6-1.4v-.4c.7 0 1.7.1 2.4.1h2.4c4.3 0 6.6 1.8 6.6 6.7 0 3.9-1.7 6.9-6.4 6.9h-2.8c-.7 0-1.6 0-2.3.1v-.5zm4.8-.6c3.1 0 4.7-1.4 4.7-5.8 0-3.6-1.2-5.6-3.7-5.9-.7-.1-1.7-.1-2.5-.1v11.7c.4 0 1 .1 1.5.1zM66 19.7c-2.9 0-4.4-1.9-4.4-5.2 0-3.2 1.8-5.1 4.5-5.1 3.2 0 4.4 2.1 4.4 5.1 0 3-1.6 5.2-4.5 5.2zm.1-9.5c-1.8 0-2.6 1.5-2.6 4.1 0 3.1.7 4.6 2.6 4.6 1.9 0 2.6-1.7 2.6-4.4 0-3.2-.9-4.3-2.6-4.3zm7.9 9.2c-.8 0-1.5 0-2.1.1v-.4c1-.1 1.2-.7 1.2-1.9v-4c0-1.9-.3-2.6-1.5-2.6v-.2c.6-.5 1.2-.9 1.9-.9.6 0 1.2.3 1.3 1.8.3-.8 1.3-1.9 2.5-1.9.6 0 1.1.4 1.1 1 0 .5-.3 1.1-.9 1.4h-.1c-.1-.4-.4-.8-1-.8-.5 0-1.3.3-1.7 1v5.4c0 1 .3 1.6 1.6 1.7v.4c-.7-.1-1.5-.1-2.3-.1zm9.6.3c-2.9 0-4.4-1.9-4.4-5.2 0-3.2 1.8-5.1 4.5-5.1 3.2 0 4.4 2.1 4.4 5.1 0 3-1.6 5.2-4.5 5.2zm.1-9.5c-1.8 0-2.6 1.5-2.6 4.1 0 3.1.7 4.6 2.6 4.6 1.9 0 2.6-1.7 2.6-4.4 0-3.2-.9-4.3-2.6-4.3zm9.1 9.4c-1.1 0-1.8-.4-2.1-1.5-.1-.3-.1-.8-.1-1.3v-6.2h-1.4v-.5c1.2-.3 1.9-.6 2.5-2.8h.5v2.5h2.3v.9h-2.3v5.8c0 .5 0 .9.1 1.2.2.8.6 1 1.3 1 .4 0 .9-.1 1.3-.3l.1.2c-.5.5-1.3 1-2.2 1zm5.3-.2c-.8 0-1.4 0-2.1.1v-.4c1-.1 1.3-.6 1.3-1.8V7.4c0-1.4-.2-1.9-1.5-2v-.2c.6-.5 1.4-1 2.1-1 .8 0 1 .4 1 2.1v4.9c.6-.8 1.8-1.7 3.4-1.7 1.1 0 1.8.4 2.2 1.2.2.4.3 1.1.3 2v3.7c0 .6 0 1.2.1 1.5.2.5.6.9 1.5.9v.2c-.4.3-1 .6-1.5.6-1.1 0-1.5-.5-1.6-1.1-.1-.4-.2-.9-.2-2.1v-3.2c0-.7-.1-1.3-.2-1.7-.2-.6-.8-.8-1.4-.8-1 0-2 .3-2.7 1v5.5c0 1.1.3 1.7 1.5 1.7v.4c-.6.1-1.5.1-2.2.1zm9.9-7.6c-.4-.7-.8-1.2-1.3-1.2v-.2c.5-.5 1-.9 1.6-.9.6 0 .9.4 1.1 1 .3.6.7 1.5.9 2.1 1.1 2.9 1.5 4 1.9 5 .4-.9 1.1-2.5 1.8-4.3.3-.9.5-1.6.5-2 0-.4-.2-.7-.5-.9v-.2c.5-.4 1-.6 1.5-.6.3 0 .7.2.7.8 0 .8-.6 2-1.3 3.6-1.9 4.4-2.6 5.9-3.8 8.1-.8 1.6-1.7 1.7-2.2 1.7-.7 0-1.3-.7-1.3-1.4l.1-.1c.2.1.5.1.8.1.5 0 1.3-.2 1.9-1.2.5-.8.7-1.4.9-1.8-1.2-2.6-2.6-6.2-3.3-7.6zm14.9 7.6h-2V19c1.1 0 1.4-.7 1.8-1.8l3.1-8.5c.4-1 .7-2 1-2.9h1.2c.3 1 .6 1.9 1 2.9l2.9 8.5c.4 1.1.8 1.8 1.8 1.8v.4h-5V19c.9 0 1.5-.3 1.5-.8 0-.3-.1-.6-.2-1.1l-.7-2.1h-4.6l-.7 2.1c-.1.4-.2.7-.2 1 0 .5.6.8 1.5.9v.4h-2.4zm6.2-5.2l-2-5.9-2.1 5.9h4.1zm7.5 5.4c-.7 0-1.2-.5-1.2-1.2s.5-1.2 1.2-1.2 1.2.5 1.2 1.2-.5 1.2-1.2 1.2zm10.6.3c-.5 1.4-2 1.9-3.2 1.9-.2 0-.6 0-.7-.1v-.1c1.6-.4 2.5-1.1 2.5-4.5V7.8c0-1.1-.3-1.5-1.7-1.6v-.4h5v.4c-1.3 0-1.5.4-1.5 1.5v9.4c-.1 1.4-.1 2.2-.4 2.8zm7.3-.2c-2.9 0-4.4-1.9-4.4-5.2 0-3.2 1.8-5.1 4.5-5.1 3.2 0 4.4 2.1 4.4 5.1 0 3-1.6 5.2-4.5 5.2zm.1-9.5c-1.8 0-2.6 1.5-2.6 4.1 0 3.1.7 4.6 2.6 4.6 1.9 0 2.6-1.7 2.6-4.4 0-3.2-.9-4.3-2.6-4.3zm7.6 9.2c-.8 0-1.4 0-2.1.1v-.4c1-.1 1.3-.6 1.3-1.8V7.4c0-1.4-.2-1.9-1.5-2v-.2c.6-.5 1.4-1 2.1-1 .8 0 1 .4 1 2.1v4.9c.6-.8 1.8-1.7 3.4-1.7 1.1 0 1.8.4 2.2 1.2.2.4.3 1.1.3 2v3.7c0 .6 0 1.2.1 1.5.2.5.6.9 1.5.9v.2c-.4.3-1 .6-1.5.6-1.1 0-1.5-.5-1.6-1.1-.1-.4-.2-.9-.2-2.1v-3.2c0-.7-.1-1.3-.2-1.7-.2-.6-.8-.8-1.4-.8-1 0-2 .3-2.7 1v5.5c0 1.1.3 1.7 1.5 1.7v.4c-.6.1-1.5.1-2.2.1zm11.9 0c-.8 0-1.4 0-2.2.1v-.4c1.1-.1 1.4-.5 1.4-1.8v-4c0-2-.3-2.6-1.6-2.6v-.2c.5-.5 1.2-.9 1.8-.9.6 0 1.3.2 1.3 1.7.6-.9 1.8-1.8 3.5-1.8 1 0 1.8.4 2.2 1.2.2.4.3 1.1.3 2v3.7c0 .6 0 1.2.1 1.5.1.5.6.9 1.5.9v.2c-.4.3-1 .6-1.5.6-1.1 0-1.5-.5-1.6-1.1-.1-.4-.1-.9-.1-2.1v-3.2c0-.7-.1-1.3-.3-1.7-.2-.5-.8-.8-1.4-.8-1 0-1.9.3-2.7 1v5.6c0 1.1.3 1.7 1.5 1.7v.4h-2.2zm11.1-2.8c0 1.6 1.1 2.3 2.3 2.3 1.1 0 2.1-.5 2.1-1.7 0-.9-.7-1.4-1.7-1.8l-1.2-.4c-1.6-.5-2.4-1.3-2.4-2.7 0-1.8 1.6-2.9 3.5-2.9 2.2 0 2.9.9 2.9 1.7 0 .4-.2.8-1.1 1l-.1-.1c0-1.4-.8-1.9-1.8-1.9s-1.9.4-1.9 1.5c0 .8.5 1.3 1.6 1.7l1.2.4c2 .7 2.6 1.6 2.6 2.8 0 1.9-1.5 3.1-3.9 3.1-2.3 0-3.3-1.2-3.3-2 0-.5.4-.9 1.2-1.1v.1zm11.8 3.1c-2.9 0-4.4-1.9-4.4-5.2 0-3.2 1.8-5.1 4.5-5.1 3.2 0 4.4 2.1 4.4 5.1 0 3-1.6 5.2-4.5 5.2zm0-9.5c-1.8 0-2.6 1.5-2.6 4.1 0 3.1.7 4.6 2.6 4.6 1.9 0 2.6-1.7 2.6-4.4 0-3.2-.9-4.3-2.6-4.3zm7.9 9.2c-.8 0-1.4 0-2.2.1v-.4c1.1-.1 1.4-.5 1.4-1.8v-4c0-2-.3-2.6-1.6-2.6v-.2c.5-.5 1.2-.9 1.8-.9.6 0 1.3.2 1.3 1.7.6-.9 1.8-1.8 3.5-1.8 1 0 1.8.4 2.2 1.2.2.4.3 1.1.3 2v3.7c0 .6 0 1.2.1 1.5.1.5.6.9 1.5.9v.2c-.4.3-1 .6-1.5.6-1.1 0-1.5-.5-1.6-1.1-.1-.4-.1-.9-.1-2.1v-3.2c0-.7-.1-1.3-.3-1.7-.2-.5-.8-.8-1.4-.8-1 0-1.9.3-2.7 1v5.6c0 1.1.3 1.7 1.5 1.7v.4h-2.2zm23.9-2.3c0 .9-1.6 2.6-4 2.6-3.9 0-5.8-2.6-5.8-6.8 0-4.5 2.2-7.3 5.8-7.3 2.6 0 3.8.9 3.8 2 0 .5-.2 1-1.4 1.4l-.1-.1c0-1.7-1.1-2.5-2.4-2.5-2.2 0-3.8 1.7-3.8 6.2 0 4.1 1.9 5.7 4.1 5.7 1.5 0 2.7-.6 3.5-1.7h.1c.1.2.2.3.2.5zm6.3 1.4c1.2 0 2.2-.4 2.9-1.3h.1c.1.1.2.2.2.4 0 .6-1.4 2.1-3.7 2.1-2.9 0-4.5-2-4.5-5.2s1.9-5.1 4.4-5.1c2.5 0 3.8 1.4 3.8 4.3 0 .5-.4.6-.7.6h-5.7c0 3 1.4 4.2 3.2 4.2zm1-5.1c.4 0 .5-.2.5-.4 0-2.1-.9-2.8-2.2-2.8-.9 0-2.4.5-2.5 3.3 1.9 0 3.5 0 4.2-.1zm5.7 6c-.8 0-1.4 0-2.2.1v-.4c1.1-.1 1.4-.5 1.4-1.8v-4c0-2-.3-2.6-1.6-2.6v-.2c.5-.5 1.2-.9 1.8-.9.6 0 1.3.2 1.3 1.7.6-.9 1.8-1.8 3.5-1.8 1 0 1.8.4 2.2 1.2.2.4.3 1.1.3 2v3.7c0 .6 0 1.2.1 1.5.1.5.6.9 1.5.9v.2c-.4.3-1 .6-1.5.6-1.1 0-1.5-.5-1.6-1.1-.1-.4-.1-.9-.1-2.1v-3.2c0-.7-.1-1.3-.3-1.7-.2-.5-.8-.8-1.4-.8-1 0-1.9.3-2.7 1v5.6c0 1.1.3 1.7 1.5 1.7v.4h-2.2zm12.5.2c-1.1 0-1.8-.4-2.1-1.5-.1-.3-.1-.8-.1-1.3v-6.2h-1.4v-.5c1.2-.3 1.9-.6 2.5-2.8h.5v2.5h2.3v.9h-2.3v5.8c0 .5 0 .9.1 1.2.2.8.6 1 1.3 1 .4 0 .9-.1 1.3-.3l.1.2c-.5.5-1.3 1-2.2 1zm8-1.1c1.2 0 2.2-.4 2.9-1.3h.1c.1.1.2.2.2.4 0 .6-1.4 2.1-3.7 2.1-2.9 0-4.5-2-4.5-5.2s1.9-5.1 4.4-5.1c2.5 0 3.8 1.4 3.8 4.3 0 .5-.4.6-.7.6h-5.7c0 3 1.4 4.2 3.2 4.2zm1-5.1c.4 0 .5-.2.5-.4 0-2.1-.9-2.8-2.2-2.8-.9 0-2.4.5-2.5 3.3 1.9 0 3.5 0 4.2-.1zm5.8 6c-.8 0-1.5 0-2.1.1v-.4c1-.1 1.2-.7 1.2-1.9v-4c0-1.9-.3-2.6-1.5-2.6v-.2c.6-.5 1.2-.9 1.9-.9.6 0 1.2.3 1.3 1.8.3-.8 1.3-1.9 2.5-1.9.6 0 1.1.4 1.1 1 0 .5-.3 1.1-.9 1.4h-.1c-.1-.4-.4-.8-1-.8-.5 0-1.3.3-1.7 1v5.4c0 1 .3 1.6 1.6 1.7v.4c-.8-.1-1.6-.1-2.3-.1z"/><path d="M49.4 29.9h4.9v.7h-4.2v2.5h3.7v.7h-3.7v3.1h-.8v-7zm6.7 3.5c0-2 1.4-3.6 3.5-3.6s3.5 1.7 3.5 3.6c0 1.9-1.4 3.6-3.5 3.6s-3.5-1.7-3.5-3.6zm6.2 0c0-1.6-1.1-2.9-2.7-2.9s-2.7 1.3-2.7 2.9c0 1.6 1.1 2.9 2.7 2.9s2.7-1.3 2.7-2.9zm3.3-3.5h3c.8 0 1.5.3 2 .7.3.3.5.8.5 1.4 0 1.2-.8 1.8-1.9 2l2.1 2.9h-1l-2-2.7h-2v2.7h-.8v-7zm2.9 3.5c1 0 1.8-.5 1.8-1.4 0-.9-.6-1.4-1.8-1.4h-2.1v2.8h2.1zm8.6-3.5h2.6c1.5 0 2.6.8 2.6 2.2 0 1.5-1.2 2.3-2.7 2.3h-1.7v2.5h-.8v-7zm2.4 3.8c1.1 0 1.9-.6 1.9-1.5 0-1-.7-1.5-1.8-1.5h-1.7v3.1h1.6zm4.9-3.8h.8V33h4v-3.1h.8v7h-.8v-3.2h-4v3.2h-.8v-7zm8.4 0h.8v7h-.8v-7zm3.6 0h.8v6.3h3.9v.7h-4.6v-7zm9.7-.1h.7l3.1 7.1h-.8l-.8-1.9h-3.7l-.8 1.9h-.8l3.1-7.1zm1.9 4.5l-1.6-3.6-1.6 3.6h3.2zm4.1-4.4h.7l4.3 5.6v-5.6h.8v7h-.6l-4.4-5.8v5.8h-.8v-7zm10.3.7h-2.3v-.7h5.4v.7h-2.3v6.3h-.8v-6.3zm5.2-.7h.8V33h4v-3.1h.8v7h-.8v-3.2h-4v3.2h-.8v-7zm8.4 0h3c.8 0 1.5.3 2 .7.3.3.5.8.5 1.4 0 1.2-.8 1.8-1.9 2l2.1 2.9h-1l-2-2.7h-2v2.7h-.7v-7zm2.9 3.5c1 0 1.8-.5 1.8-1.4 0-.9-.6-1.4-1.8-1.4h-2.1v2.8h2.1zm4.6 0c0-2 1.4-3.6 3.5-3.6s3.5 1.7 3.5 3.6c0 1.9-1.4 3.6-3.5 3.6s-3.5-1.7-3.5-3.6zm6.2 0c0-1.6-1.1-2.9-2.7-2.9s-2.7 1.3-2.7 2.9c0 1.6 1.1 2.9 2.7 2.9s2.7-1.3 2.7-2.9zm3.3-3.5h2.6c1.5 0 2.6.8 2.6 2.2 0 1.5-1.2 2.3-2.7 2.3h-1.7v2.5h-.8v-7zm2.5 3.8c1.1 0 1.9-.6 1.9-1.5 0-1-.7-1.5-1.8-1.5h-1.7v3.1h1.6zm6.9.4l-2.9-4.2h.9l2.3 3.5 2.3-3.5h.9l-2.9 4.2v2.8h-.8v-2.8z" fill="#7b7977"/></svg>